<?xml version="1.0" standalone="no"?><svg xmlns="http://www.w3.org/2000/svg" viewBox="0 0 1440 320"><path fill="#00BFA6" fill-opacity="1" d="M0,160L40,138.7C80,117,160,75,240,64C320,53,400,75,480,101.3C560,128,640,160,720,192C800,224,880,256,960,256C1040,256,1120,224,1200,213.3C1280,203,1360,213,1400,218.7L1440,224L1440,320L1400,320C1360,320,1280,320,1200,320C1120,320,1040,320,960,320C880,320,800,320,720,320C640,320,560,320,480,320C400,320,320,320,240,320C160,320,80,320,40,320L0,320Z"></path></svg>